{
  "accessors": [
    {
      "bufferView": 2,
      "componentType": 5126,
      "count": 28447,
      "max": [
        8.360538482666016,
        8.995338439941406,
        11.069029808044434
      ],
      "min": [
        -12.888875007629395,
        -10.299869537353516,
        -0.13041426241397858
      ],
      "type": "VEC3"
    },
    {
      "bufferView": 2,
      "byteOffset": 341364,
      "componentType": 5126,
      "count": 28447,
      "max": [
        0.9999232292175293,
        0.999916136264801,
        0.9999188184738159
      ],
      "min": [
        -0.9997552633285522,
        -0.9998669624328613,
        -0.9999210238456726
      ],
      "type": "VEC3"
    },
    {
      "bufferView": 3,
      "componentType": 5126,
      "count": 28447,
      "max": [
        0.9986158609390259,
        0.9999329447746277,
        0.9999932050704956,
        1.0
      ],
      "min": [
        -0.9289758205413818,
        -0.995822548866272,
        -0.9999936819076538,
        -1.0
      ],
      "type": "VEC4"
    },
    {
      "bufferView": 1,
      "componentType": 5126,
      "count": 28447,
      "max": [
        0.9954060912132263,
        0.9979999661445618
      ],
      "min": [
        0.0020000000949949026,
        0.0020000000949949026
      ],
      "type": "VEC2"
    },
    {
      "bufferView": 0,
      "componentType": 5125,
      "count": 90018,
      "type": "SCALAR"
    }
  ],
  "asset": {
    "extras": {
      "author": "3dhdscan (https://sketchfab.com/3dhdscan)",
      "license": "CC-BY-4.0 (http://creativecommons.org/licenses/by/4.0/)",
      "source": "https://sketchfab.com/3d-models/granite-rock-yellowish-brown-519c813e95af46a59e010539cd02ac5f",
      "title": "Granite rock yellowish brown"
    },
    "generator": "Sketchfab-12.67.0",
    "version": "2.0"
  },
  "bufferViews": [
    {
      "buffer": 0,
      "byteLength": 360072,
      "name": "floatBufferViews",
      "target": 34963
    },
    {
      "buffer": 0,
      "byteLength": 227576,
      "byteOffset": 360072,
      "byteStride": 8,
      "name": "floatBufferViews",
      "target": 34962
    },
    {
      "buffer": 0,
      "byteLength": 682728,
      "byteOffset": 587648,
      "byteStride": 12,
      "name": "floatBufferViews",
      "target": 34962
    },
    {
      "buffer": 0,
      "byteLength": 455152,
      "byteOffset": 1270376,
      "byteStride": 16,
      "name": "floatBufferViews",
      "target": 34962
    }
  ],
  "buffers": [
    {
      "byteLength": 1725528,
      "uri": "scene.bin"
    }
  ],
  "images": [
    {
      "uri": "textures/07_-_Default_baseColor.jpeg"
    },
    {
      "uri": "textures/07_-_Default_metallicRoughness.png"
    },
    {
      "uri": "textures/07_-_Default_normal.jpeg"
    }
  ],
  "materials": [
    {
      "doubleSided": true,
      "name": "07_-_Default",
      "normalTexture": {
        "index": 2
      },
      "occlusionTexture": {
        "index": 1
      },
      "pbrMetallicRoughness": {
        "baseColorTexture": {
          "index": 0
        },
        "metallicFactor": 0.0,
        "metallicRoughnessTexture": {
          "index": 1
        },
        "roughnessFactor": 0.7787728658536586
      }
    }
  ],
  "meshes": [
    {
      "name": "sutr_zula_midle1_07 - Default_0",
      "primitives": [
        {
          "attributes": {
            "NORMAL": 1,
            "POSITION": 0,
            "TANGENT": 2,
            "TEXCOORD_0": 3
          },
          "indices": 4,
          "material": 0,
          "mode": 4
        }
      ]
    }
  ],
  "nodes": [
    {
      "children": [
        1
      ],
      "matrix": [
        0.00013224132999312133,
        0.0,
        0.0,
        0.0,
        0.0,
        2.936347387308332e-20,
        -0.00013224132999312133,
        0.0,
        0.0,
        0.00013224132999312133,
        2.936347387308332e-20,
        0.0,
        0.0,
        0.0,
        0.0,
        1.0
      ],
      "name": "Sketchfab_model"
    },
    {
      "children": [
        2
      ],
      "matrix": [
        1.0,
        0.0,
        0.0,
        0.0,
        0.0,
        0.0,
        1.0,
        0.0,
        0.0,
        -1.0,
        0.0,
        0.0,
        0.0,
        0.0,
        0.0,
        1.0
      ],
      "name": "sutr_zula_midle1.FBX"
    },
    {
      "children": [
        3
      ],
      "name": "RootNode"
    },
    {
      "children": [
        4
      ],
      "matrix": [
        4.371138861980484e-06,
        -5.551115123125783e-15,
        99.99999999999991,
        0.0,
        99.99999999999991,
        1.1102230246251565e-14,
        -4.371138867531599e-06,
        0.0,
        -1.6653345369377348e-14,
        100.0,
        0.0,
        0.0,
        0.0,
        0.0,
        0.0,
        1.0
      ],
      "name": "sutr_zula_midle1"
    },
    {
      "mesh": 0,
      "name": "sutr_zula_midle1_07 - Default_0"
    }
  ],
  "samplers": [
    {
      "magFilter": 9729,
      "minFilter": 9987,
      "wrapS": 10497,
      "wrapT": 10497
    }
  ],
  "scene": 0,
  "scenes": [
    {
      "name": "Sketchfab_Scene",
      "nodes": [
        0
      ]
    }
  ],
  "textures": [
    {
      "sampler": 0,
      "source": 0
    },
    {
      "sampler": 0,
      "source": 1
    },
    {
      "sampler": 0,
      "source": 2
    }
  ]
}
